<svg xmlns="http://www.w3.org/2000/svg" viewBox="0 0 841.89 229.27"><defs><style>.cls-1{fill:none;}.cls-2,.cls-3{fill:#1d1d1b;}.cls-3{font-size:22px;font-family:HurmeGeometricSans4-SemiBold, "Hurme Geometric Sans 4";font-weight:600;}.cls-4{letter-spacing:-0.07em;}.cls-5{letter-spacing:-0.03em;}.cls-6{letter-spacing:-0.01em;}.cls-7{letter-spacing:-0.02em;}.cls-8{letter-spacing:-0.09em;}.cls-9{letter-spacing:0.01em;}.cls-10{letter-spacing:-0.01em;}.cls-11{letter-spacing:-0.01em;}.cls-12{letter-spacing:-0.09em;}.cls-13{letter-spacing:-0.03em;}</style></defs><g id="Vrstva_2" data-name="Vrstva 2"><g id="Vrstva_1-2" data-name="Vrstva 1"><rect class="cls-1" width="841.89" height="229.27"/><path class="cls-2" d="M242.75,55.57H238.3v-1h10.06v1h-4.47V69.85h-1.14Z"/><path class="cls-2" d="M248.8,64.33c0-3.45,2.35-5.85,5.41-5.85A5.25,5.25,0,0,1,259.36,64s0,.33,0,.55h-9.46a4.31,4.31,0,0,0,4.38,4.51,4.7,4.7,0,0,0,3.63-1.6l.72.7a5.54,5.54,0,0,1-4.35,1.94,5.37,5.37,0,0,1-5.46-5.72Zm9.42-.75a4,4,0,0,0-4-4.07,4.25,4.25,0,0,0-4.29,4.07Z"/><path class="cls-2" d="M262.13,58.76h1.1V60.9A3.67,3.67,0,0,1,267,58.59c2.51,0,4.2,1.71,4.2,4.42v4.67c0,.9.2,1.25.86,1.25a4.09,4.09,0,0,0,.46,0v.92a1.66,1.66,0,0,1-.64.11c-.92,0-1.78-.48-1.78-2.16V63.23c0-2.22-1.34-3.61-3.34-3.61-2.18,0-3.57,1.72-3.57,4.27v6h-1.1Z"/><path class="cls-2" d="M275.35,59.8h-1.29v-1h1.29V54.52h1.1v4.24h3.08v1h-3.08v7c0,1.72.6,2.36,1.94,2.36a4.85,4.85,0,0,0,1.14-.11v1a4.2,4.2,0,0,1-1.1.13c-1.6,0-3.08-.57-3.08-3.37Z"/><path class="cls-2" d="M287.1,58.48a5.83,5.83,0,1,1-5.83,5.83A5.73,5.73,0,0,1,287.1,58.48Zm0,10.63a4.8,4.8,0,1,0-4.73-4.8A4.66,4.66,0,0,0,287.1,69.11Z"/><path class="cls-2" d="M301.58,58.76h1.1v2.32a4.52,4.52,0,0,1,4.4-2.6,5.84,5.84,0,0,1,0,11.66,4.52,4.52,0,0,1-4.4-2.6V74.1h-1.1Zm5.5,10.35a4.81,4.81,0,1,0-4.51-4.8A4.55,4.55,0,0,0,307.08,69.11Z"/><path class="cls-2" d="M320.87,58.61v1.15a4.12,4.12,0,0,0-.7,0c-2.42,0-3.59,1.87-3.59,4.07v6.07h-1.1V58.76h1.1V61a3.56,3.56,0,0,1,3.76-2.4A4.61,4.61,0,0,1,320.87,58.61Z"/><path class="cls-2" d="M327.85,58.48A5.83,5.83,0,1,1,322,64.31,5.74,5.74,0,0,1,327.85,58.48Zm0,10.63a4.8,4.8,0,1,0-4.74-4.8A4.66,4.66,0,0,0,327.85,69.11Z"/><path class="cls-2" d="M336.49,58.76h1.1V71.39c0,2.49-1.43,3-2.81,3a3,3,0,0,1-.73-.07v-1a5.79,5.79,0,0,0,.83.06c1.13,0,1.61-.55,1.61-2Zm-.24-2.94a.79.79,0,1,1,.79.77A.79.79,0,0,1,336.25,55.82Z"/><path class="cls-2" d="M340.43,64.33c0-3.45,2.35-5.85,5.41-5.85A5.25,5.25,0,0,1,351,64s0,.33,0,.55h-9.46a4.31,4.31,0,0,0,4.38,4.51,4.7,4.7,0,0,0,3.63-1.6l.72.7a5.54,5.54,0,0,1-4.35,1.94,5.37,5.37,0,0,1-5.46-5.72Zm9.42-.75a4,4,0,0,0-4-4.07,4.25,4.25,0,0,0-4.29,4.07Z"/><path class="cls-2" d="M353.76,54.52h1.1V64.86l5.39-6.1h1.32l-4.29,4.87,4.8,6.22h-1.34l-4.16-5.41-1.72,1.89v3.52h-1.1Z"/><path class="cls-2" d="M365,59.8h-1.3v-1H365V54.52h1.1v4.24h3.08v1h-3.08v7c0,1.72.59,2.36,1.93,2.36a5,5,0,0,0,1.15-.11v1a4.2,4.2,0,0,1-1.1.13c-1.61,0-3.08-.57-3.08-3.37Z"/><path class="cls-2" d="M377.45,58.76h1.1V71.39c0,2.49-1.43,3-2.81,3a3.06,3.06,0,0,1-.73-.07v-1a5.93,5.93,0,0,0,.84.06c1.12,0,1.6-.55,1.6-2Zm-.24-2.94a.8.8,0,1,1,.79.77A.79.79,0,0,1,377.21,55.82Z"/><path class="cls-2" d="M381.39,64.33c0-3.45,2.36-5.85,5.42-5.85A5.25,5.25,0,0,1,392,64s0,.33,0,.55h-9.46a4.31,4.31,0,0,0,4.38,4.51,4.7,4.7,0,0,0,3.63-1.6l.73.7a5.57,5.57,0,0,1-4.36,1.94,5.37,5.37,0,0,1-5.46-5.72Zm9.42-.75a4,4,0,0,0-4-4.07,4.25,4.25,0,0,0-4.3,4.07Z"/><path class="cls-2" d="M400.82,67a3.11,3.11,0,0,0,3.12,2.07c1.83,0,2.64-.86,2.64-2,0-1.34-1-1.89-2.75-2.57s-3.12-1.45-3.12-3.26c0-1.65,1.32-2.79,3.23-2.79a3.26,3.26,0,0,1,3,1.82l-.9.47a2.32,2.32,0,0,0-2.14-1.26c-1.3,0-2.11.73-2.11,1.72,0,1.34,1.1,1.8,2.55,2.38,2.27.88,3.32,1.65,3.32,3.47s-1.29,3-3.69,3a4.05,4.05,0,0,1-4.12-2.75Z"/><path class="cls-2" d="M410.21,58.76h1.1v2.32a4.54,4.54,0,0,1,4.4-2.6,5.84,5.84,0,0,1,0,11.66,4.54,4.54,0,0,1-4.4-2.6V74.1h-1.1Zm5.5,10.35a4.81,4.81,0,1,0-4.51-4.8A4.54,4.54,0,0,0,415.71,69.11Z"/><path class="cls-2" d="M429.44,58.48a5.83,5.83,0,1,1-5.83,5.83A5.73,5.73,0,0,1,429.44,58.48Zm0,10.63a4.8,4.8,0,1,0-4.73-4.8A4.66,4.66,0,0,0,429.44,69.11Z"/><path class="cls-2" d="M438.09,54.52h1.1V67c0,1.46.48,2.12,1.65,2.12a4.49,4.49,0,0,0,.92-.09v1a3.87,3.87,0,0,1-.92.11c-1.35,0-2.75-.53-2.75-3.08Z"/><path class="cls-2" d="M443.81,58.76h1.1v6.63c0,2.22,1.29,3.61,3.27,3.61,2.16,0,3.52-1.63,3.52-4V58.76h1.1v9c0,1,.27,1.36.93,1.36a3,3,0,0,0,.62-.06v.86a2.27,2.27,0,0,1-.93.15c-.72,0-1.65-.48-1.65-2v-.31A3.84,3.84,0,0,1,447.92,70c-2.46,0-4.11-1.72-4.11-4.42Z"/><path class="cls-2" d="M457.27,59.8h-1.72v-1h1.72v-1a3.42,3.42,0,0,1,1-2.84,3,3,0,0,1,2.09-.64,4.44,4.44,0,0,1,.86.09v1a7.21,7.21,0,0,0-1-.06c-1.28,0-1.87.7-1.87,2.33v1.16h2.46v1h-2.46v10h-1.1Z"/><path class="cls-2" d="M463.21,55.8a.79.79,0,1,1,1.58,0,.79.79,0,0,1-1.58,0Zm.24,3h1.1v9.09c0,.84.22,1.21.9,1.21a5.54,5.54,0,0,0,.62,0v.92a2.49,2.49,0,0,1-.9.13c-.82,0-1.72-.3-1.72-2Z"/><path class="cls-2" d="M468.4,58.76h1.1V60.9a3.67,3.67,0,0,1,3.81-2.31c2.51,0,4.2,1.71,4.2,4.42v4.67c0,.9.2,1.25.86,1.25a4.09,4.09,0,0,0,.46,0v.92a1.66,1.66,0,0,1-.64.11c-.92,0-1.78-.48-1.78-2.16V63.23c0-2.22-1.34-3.61-3.34-3.61-2.18,0-3.57,1.72-3.57,4.27v6h-1.1Z"/><path class="cls-2" d="M486.24,58.48a4.55,4.55,0,0,1,4.4,2.6V58.76h1.1v9c0,.92.25,1.34.93,1.34a2.27,2.27,0,0,0,.61-.07v.86a2.15,2.15,0,0,1-.92.15c-1.21,0-1.67-.92-1.67-2.13v-.37a4.68,4.68,0,0,1-4.45,2.57,5.84,5.84,0,0,1,0-11.66Zm0,10.63a4.81,4.81,0,1,0-4.48-4.8A4.52,4.52,0,0,0,486.24,69.11Z"/><path class="cls-2" d="M495.73,58.76h1.09V60.9a3.67,3.67,0,0,1,3.81-2.31c2.51,0,4.2,1.71,4.2,4.42v4.67c0,.9.2,1.25.86,1.25a3.73,3.73,0,0,0,.46,0v.92a1.64,1.64,0,0,1-.63.11c-.93,0-1.79-.48-1.79-2.16V63.23c0-2.22-1.34-3.61-3.34-3.61-2.18,0-3.57,1.72-3.57,4.27v6h-1.09Z"/><path class="cls-2" d="M513.72,58.48a5.61,5.61,0,0,1,4.2,1.74l-.66.75a4.8,4.8,0,0,0-3.54-1.46,4.8,4.8,0,0,0,0,9.6,4.8,4.8,0,0,0,3.54-1.46l.66.75a5.65,5.65,0,0,1-4.2,1.74,5.83,5.83,0,0,1,0-11.66Z"/><path class="cls-2" d="M525.84,58.48A5.83,5.83,0,1,1,520,64.31,5.73,5.73,0,0,1,525.84,58.48Zm0,10.63a4.8,4.8,0,1,0-4.73-4.8A4.66,4.66,0,0,0,525.84,69.11Z"/><path class="cls-2" d="M532.88,58.76H534l4,9.33,4-9.33h1.17L538.4,69.85h-.77Z"/><path class="cls-2" d="M550.22,58.48a4.56,4.56,0,0,1,4.4,2.6V58.76h1.1v9c0,.92.24,1.34.92,1.34a2.35,2.35,0,0,0,.62-.07v.86a2.17,2.17,0,0,1-.92.15c-1.21,0-1.68-.92-1.68-2.13v-.37a4.66,4.66,0,0,1-4.44,2.57,5.84,5.84,0,0,1,0-11.66Zm0,10.63a4.81,4.81,0,1,0-4.49-4.8A4.53,4.53,0,0,0,550.22,69.11ZM551,54.52h1.45l-1.87,3.19h-.9Z"/><path class="cls-2" d="M559.7,58.76h1.1V60.9a3.67,3.67,0,0,1,3.81-2.31c2.51,0,4.2,1.71,4.2,4.42v4.67c0,.9.2,1.25.86,1.25a4.09,4.09,0,0,0,.46,0v.92a1.66,1.66,0,0,1-.64.11c-.92,0-1.78-.48-1.78-2.16V63.23c0-2.22-1.34-3.61-3.35-3.61-2.17,0-3.56,1.72-3.56,4.27v6h-1.1Z"/><path class="cls-2" d="M578.64,67a3.12,3.12,0,0,0,3.13,2.07c1.82,0,2.64-.86,2.64-2,0-1.34-1-1.89-2.75-2.57s-3.13-1.45-3.13-3.26c0-1.65,1.32-2.79,3.24-2.79a3.26,3.26,0,0,1,3,1.82l-.9.47a2.31,2.31,0,0,0-2.14-1.26c-1.29,0-2.11.73-2.11,1.72,0,1.34,1.1,1.8,2.55,2.38,2.27.88,3.33,1.65,3.33,3.47s-1.3,3-3.7,3a4,4,0,0,1-4.11-2.75Z"/><path class="cls-2" d="M587.55,64.33c0-3.45,2.36-5.85,5.41-5.85A5.25,5.25,0,0,1,598.11,64s0,.33,0,.55h-9.46A4.31,4.31,0,0,0,593,69.08a4.7,4.7,0,0,0,3.63-1.6l.72.7A5.54,5.54,0,0,1,593,70.12a5.37,5.37,0,0,1-5.46-5.72Zm9.42-.75a4,4,0,0,0-4-4.07,4.25,4.25,0,0,0-4.29,4.07Z"/><path class="cls-2" d="M607,67a3.11,3.11,0,0,0,3.12,2.07c1.83,0,2.64-.86,2.64-2,0-1.34-1-1.89-2.75-2.57s-3.12-1.45-3.12-3.26c0-1.65,1.32-2.79,3.23-2.79a3.26,3.26,0,0,1,3,1.82l-.91.47a2.3,2.3,0,0,0-2.13-1.26c-1.3,0-2.11.73-2.11,1.72,0,1.34,1.1,1.8,2.55,2.38,2.27.88,3.32,1.65,3.32,3.47s-1.3,3-3.69,3A4.05,4.05,0,0,1,606,67.35Z"/><path class="cls-2" d="M617.29,59.8H616v-1h1.29V54.52h1.1v4.24h3.09v1h-3.09v7c0,1.72.6,2.36,1.94,2.36a5,5,0,0,0,1.15-.11v1a4.33,4.33,0,0,1-1.11.13c-1.6,0-3.08-.57-3.08-3.37Z"/><path class="cls-2" d="M628.82,58.48a4.55,4.55,0,0,1,4.4,2.6V58.76h1.1v9c0,.92.25,1.34.93,1.34a2.27,2.27,0,0,0,.61-.07v.86a2.15,2.15,0,0,1-.92.15c-1.21,0-1.67-.92-1.67-2.13v-.37a4.68,4.68,0,0,1-4.45,2.57,5.84,5.84,0,0,1,0-11.66Zm0,10.63a4.81,4.81,0,1,0-4.49-4.8A4.52,4.52,0,0,0,628.82,69.11Zm.73-14.59H631l-1.87,3.19h-.9Z"/><path class="cls-2" d="M638.64,59.8h-1.3v-1h1.3V54.52h1.1v4.24h3.08v1h-3.08v7c0,1.72.59,2.36,1.93,2.36a5,5,0,0,0,1.15-.11v1a4.31,4.31,0,0,1-1.1.13c-1.61,0-3.08-.57-3.08-3.37Z"/><path class="cls-2" d="M645.48,58.76h1.1V60.9a3.66,3.66,0,0,1,3.8-2.31A4.06,4.06,0,0,1,654.59,63v4.67c0,.9.19,1.25.86,1.25a4.09,4.09,0,0,0,.46,0v.92a1.66,1.66,0,0,1-.64.11c-.93,0-1.78-.48-1.78-2.16V63.23a3.27,3.27,0,0,0-3.35-3.61c-2.18,0-3.56,1.72-3.56,4.27v6h-1.1Z"/><path class="cls-2" d="M658.46,58.76h1.1v9.09c0,.84.22,1.21.9,1.21a5.7,5.7,0,0,0,.62,0v.92a2.54,2.54,0,0,1-.91.13c-.81,0-1.71-.3-1.71-2Zm1.34-4.24h1.43l-1.87,3.19h-.88Z"/><path class="cls-2" d="M669.37,58.76h1.1v2.32a4.52,4.52,0,0,1,4.4-2.6,5.84,5.84,0,0,1,0,11.66,4.52,4.52,0,0,1-4.4-2.6V74.1h-1.1Zm5.5,10.35a4.81,4.81,0,1,0-4.51-4.8A4.55,4.55,0,0,0,674.87,69.11Z"/><path class="cls-2" d="M688.6,58.48a5.83,5.83,0,1,1-5.83,5.83A5.74,5.74,0,0,1,688.6,58.48Zm0,10.63a4.8,4.8,0,1,0-4.74-4.8A4.66,4.66,0,0,0,688.6,69.11Z"/><path class="cls-2" d="M702.32,58.48a4.55,4.55,0,0,1,4.4,2.6V54.52h1.1V67.79c0,.92.25,1.34.93,1.34a2.27,2.27,0,0,0,.61-.07v.86a2.15,2.15,0,0,1-.92.15c-1.21,0-1.67-.92-1.67-2.13v-.37a4.68,4.68,0,0,1-4.45,2.57,5.84,5.84,0,0,1,0-11.66Zm0,10.63a4.81,4.81,0,1,0-4.49-4.8A4.52,4.52,0,0,0,702.32,69.11Z"/><path class="cls-2" d="M711.8,58.76h1.1v2.32a4.54,4.54,0,0,1,4.41-2.6,5.84,5.84,0,0,1,0,11.66,4.54,4.54,0,0,1-4.41-2.6V74.1h-1.1Zm5.51,10.35a4.81,4.81,0,1,0-4.52-4.8A4.54,4.54,0,0,0,717.31,69.11Z"/><path class="cls-2" d="M731,58.48a5.83,5.83,0,1,1-5.83,5.83A5.73,5.73,0,0,1,731,58.48Zm0,10.63a4.8,4.8,0,1,0-4.73-4.8A4.66,4.66,0,0,0,731,69.11Z"/><path class="cls-2" d="M745.05,58.61v1.15a4.25,4.25,0,0,0-.71,0c-2.42,0-3.59,1.87-3.59,4.07v6.07h-1.1V58.76h1.1V61a3.59,3.59,0,0,1,3.77-2.4A4.78,4.78,0,0,1,745.05,58.61Z"/><path class="cls-2" d="M752,58.48a5.83,5.83,0,1,1-5.83,5.83A5.73,5.73,0,0,1,752,58.48Zm0,10.63a4.8,4.8,0,1,0-4.73-4.8A4.66,4.66,0,0,0,752,69.11Z"/><path class="cls-2" d="M760.51,58.76h1.1v6.63c0,2.22,1.3,3.61,3.28,3.61,2.15,0,3.52-1.63,3.52-4V58.76h1.1v9c0,1,.26,1.36.92,1.36a2.9,2.9,0,0,0,.62-.06v.86a2.23,2.23,0,0,1-.92.15c-.73,0-1.65-.48-1.65-2v-.31A3.86,3.86,0,0,1,764.62,70c-2.46,0-4.11-1.72-4.11-4.42Z"/><path class="cls-2" d="M242.75,82H238.3v-1h10.06v1h-4.47V96.25h-1.14Z"/><path class="cls-2" d="M248.8,90.73c0-3.45,2.35-5.85,5.41-5.85a5.24,5.24,0,0,1,5.15,5.54s0,.33,0,.55h-9.46a4.31,4.31,0,0,0,4.38,4.51,4.7,4.7,0,0,0,3.63-1.6l.72.7a5.54,5.54,0,0,1-4.35,1.94,5.37,5.37,0,0,1-5.46-5.72Zm9.42-.75a4,4,0,0,0-4-4.07A4.24,4.24,0,0,0,249.92,90Z"/><path class="cls-2" d="M267.48,84.88a5.63,5.63,0,0,1,4.2,1.74l-.66.74a4.83,4.83,0,0,0-3.54-1.45,4.8,4.8,0,0,0,0,9.6A4.8,4.8,0,0,0,271,94.05l.66.75a5.67,5.67,0,0,1-4.2,1.74,5.83,5.83,0,0,1,0-11.66Z"/><path class="cls-2" d="M274.25,80.92h1.1V87.3A3.61,3.61,0,0,1,279.11,85c2.49,0,4.16,1.71,4.16,4.42v4.67c0,.9.2,1.25.86,1.25a4,4,0,0,0,.44,0v.92a1.66,1.66,0,0,1-.64.11c-.9,0-1.76-.48-1.76-2.16V89.63c0-2.22-1.32-3.61-3.3-3.61-2.15,0-3.52,1.72-3.52,4.27v6h-1.1Z"/><path class="cls-2" d="M287.12,85.16h1.1V87.3A3.67,3.67,0,0,1,292,85c2.51,0,4.2,1.71,4.2,4.42v4.67c0,.9.2,1.25.86,1.25a3.91,3.91,0,0,0,.46,0v.92a1.66,1.66,0,0,1-.64.11c-.92,0-1.78-.48-1.78-2.16V89.63c0-2.22-1.34-3.61-3.34-3.61-2.18,0-3.57,1.72-3.57,4.27v6h-1.1Z"/><path class="cls-2" d="M305.1,84.88a5.83,5.83,0,1,1-5.83,5.83A5.73,5.73,0,0,1,305.1,84.88Zm0,10.63a4.8,4.8,0,1,0-4.73-4.8A4.66,4.66,0,0,0,305.1,95.51Z"/><path class="cls-2" d="M313.74,80.92h1.1V93.39c0,1.46.49,2.12,1.65,2.12a4.59,4.59,0,0,0,.93-.09v1a4,4,0,0,1-.93.11c-1.34,0-2.75-.53-2.75-3.08Z"/><path class="cls-2" d="M324.61,84.88a5.83,5.83,0,1,1-5.83,5.83A5.72,5.72,0,0,1,324.61,84.88Zm0,10.63a4.8,4.8,0,1,0-4.73-4.8A4.66,4.66,0,0,0,324.61,95.51Z"/><path class="cls-2" d="M338.36,99.91a4.83,4.83,0,0,0,3.1-.93c1.15-.94,1.28-2.48,1.28-3.78V94a4.62,4.62,0,0,1-4.4,2.53,5.84,5.84,0,0,1,0-11.66,4.56,4.56,0,0,1,4.4,2.59V85.16h1.1V94.6c0,2.16-.15,3.94-1.69,5.17a6.05,6.05,0,0,1-3.77,1.17,8.1,8.1,0,0,1-5.19-1.72l.59-.85A6.89,6.89,0,0,0,338.36,99.91Zm0-4.4a4.81,4.81,0,1,0-4.49-4.8A4.53,4.53,0,0,0,338.34,95.51Z"/><path class="cls-2" d="M346.92,82.19a.79.79,0,1,1,.79.77A.79.79,0,0,1,346.92,82.19Zm.24,3h1.1v9.09c0,.84.22,1.21.9,1.21a5.7,5.7,0,0,0,.62,0v.92a2.52,2.52,0,0,1-.9.13c-.82,0-1.72-.3-1.72-2Z"/><path class="cls-2" d="M357.15,84.88a5.61,5.61,0,0,1,4.2,1.74l-.66.74a4.83,4.83,0,0,0-3.54-1.45,4.8,4.8,0,0,0,0,9.6,4.8,4.8,0,0,0,3.54-1.46l.66.75a5.65,5.65,0,0,1-4.2,1.74,5.83,5.83,0,1,1,0-11.66Z"/><path class="cls-2" d="M364,80.92h1.1V91.26l5.39-6.1h1.32L367.47,90l4.79,6.22h-1.34l-4.16-5.41-1.71,1.89v3.52H364Z"/><path class="cls-2" d="M373.4,90.73c0-3.45,2.36-5.85,5.42-5.85A5.25,5.25,0,0,1,384,90.42s0,.33,0,.55h-9.47a4.31,4.31,0,0,0,4.38,4.51,4.67,4.67,0,0,0,3.63-1.6l.73.7a5.57,5.57,0,0,1-4.36,1.94,5.37,5.37,0,0,1-5.46-5.72Zm9.42-.75a4,4,0,0,0-4-4.07A4.24,4.24,0,0,0,374.53,90Zm-3.3-9.06H381l-1.87,3.19h-.88Z"/><path class="cls-2" d="M397.69,84.88a4.58,4.58,0,0,1,4.41,2.59V85.16h1.1v9c0,.92.24,1.34.92,1.34a2.4,2.4,0,0,0,.62-.07v.86a2.22,2.22,0,0,1-.93.15c-1.21,0-1.67-.92-1.67-2.13V94a4.67,4.67,0,0,1-4.45,2.57,5.84,5.84,0,0,1,0-11.66Zm0,10.63a4.81,4.81,0,1,0-4.48-4.8A4.52,4.52,0,0,0,397.69,95.51Z"/><path class="cls-2" d="M411.82,99.91a4.85,4.85,0,0,0,3.1-.93c1.15-.94,1.28-2.48,1.28-3.78V94a4.64,4.64,0,0,1-4.4,2.53,5.84,5.84,0,0,1,0-11.66,4.57,4.57,0,0,1,4.4,2.59V85.16h1.1V94.6c0,2.16-.16,3.94-1.7,5.17a6,6,0,0,1-3.76,1.17,8.08,8.08,0,0,1-5.19-1.72l.59-.85A6.89,6.89,0,0,0,411.82,99.91Zm0-4.4a4.81,4.81,0,1,0-4.49-4.8A4.53,4.53,0,0,0,411.8,95.51Z"/><path class="cls-2" d="M420.11,90.73c0-3.45,2.36-5.85,5.41-5.85a5.24,5.24,0,0,1,5.15,5.54s0,.33,0,.55h-9.46a4.31,4.31,0,0,0,4.38,4.51,4.7,4.7,0,0,0,3.63-1.6l.72.7a5.54,5.54,0,0,1-4.35,1.94,5.37,5.37,0,0,1-5.46-5.72Zm9.42-.75a4,4,0,0,0-4-4.07A4.24,4.24,0,0,0,421.23,90Z"/><path class="cls-2" d="M433.44,85.16h1.1V87.3A3.67,3.67,0,0,1,438.35,85c2.51,0,4.2,1.71,4.2,4.42v4.67c0,.9.2,1.25.86,1.25a3.73,3.73,0,0,0,.46,0v.92a1.64,1.64,0,0,1-.63.11c-.93,0-1.79-.48-1.79-2.16V89.63c0-2.22-1.34-3.61-3.34-3.61-2.18,0-3.57,1.72-3.57,4.27v6h-1.1Z"/><path class="cls-2" d="M446.67,86.2h-1.3v-1h1.3V80.92h1.1v4.24h3.08v1h-3.08v7c0,1.72.59,2.36,1.93,2.36a5,5,0,0,0,1.15-.11v1a4.31,4.31,0,0,1-1.1.13c-1.61,0-3.08-.57-3.08-3.37Z"/><path class="cls-2" d="M453.38,85.16h1.1v6.63c0,2.22,1.29,3.61,3.27,3.61,2.16,0,3.52-1.63,3.52-4V85.16h1.1v9c0,.95.27,1.36.93,1.36a2.8,2.8,0,0,0,.61-.06v.86a2.2,2.2,0,0,1-.92.15c-.73,0-1.65-.48-1.65-2v-.31a3.84,3.84,0,0,1-3.85,2.29c-2.46,0-4.11-1.72-4.11-4.42Z"/><path class="cls-2" d="M471.68,85v1.14a5.88,5.88,0,0,0-.7,0c-2.42,0-3.59,1.87-3.59,4.07v6.07h-1.1V85.16h1.1v2.23a3.57,3.57,0,0,1,3.76-2.4A4.61,4.61,0,0,1,471.68,85Z"/><path class="cls-2" d="M477.62,96.32l-4.4-11.16h1.14l3.81,9.73L482,85.16h1.17l-5.24,13a5.24,5.24,0,0,1-1.12,1.89,2.54,2.54,0,0,1-1.85.71,2.69,2.69,0,0,1-1-.18v-1a2.79,2.79,0,0,0,1,.15,1.57,1.57,0,0,0,1.19-.48A3.87,3.87,0,0,0,477,98Z"/><path class="cls-2" d="M498.23,80.65a7.74,7.74,0,0,1,5.86,2.58l-.77.72a6.6,6.6,0,0,0-5.09-2.24,6.88,6.88,0,0,0,0,13.75,6.56,6.56,0,0,0,5.11-2.29l.79.73a7.72,7.72,0,0,1-5.9,2.62,7.94,7.94,0,1,1,0-15.87Zm-3.28-4h1.39l1.94,1.87,1.93-1.87h1.37l-2.84,2.71h-.92Z"/><path class="cls-2" d="M507.71,80.92h4.91a4.48,4.48,0,0,1,1.48,8.71l3.71,6.62h-1.25L513,89.81a4.3,4.3,0,0,1-.46,0h-3.63v6.42h-1.15Zm4.8,7.85a3.4,3.4,0,1,0,.07-6.8h-3.72v6.8Z"/><path class="cls-2" d="M531.08,84.88a4.56,4.56,0,0,1,4.4,2.59V85.16h1.1v9c0,.92.24,1.34.92,1.34a2.35,2.35,0,0,0,.62-.07v.86a2.17,2.17,0,0,1-.92.15c-1.21,0-1.68-.92-1.68-2.13V94a4.66,4.66,0,0,1-4.44,2.57,5.84,5.84,0,0,1,0-11.66Zm0,10.63a4.81,4.81,0,1,0-4.49-4.8A4.53,4.53,0,0,0,531.08,95.51Z"/><path class="cls-2" d="M547.31,80.92h1.06l6.07,10.67,6.1-10.67h1.05V96.25h-1.14v-13l-6,10.41-6-10.39v13h-1.13Z"/><path class="cls-2" d="M565.42,82.19a.79.79,0,1,1,.79.77A.79.79,0,0,1,565.42,82.19Zm.24,3h1.1v9.09c0,.84.22,1.21.9,1.21a5.54,5.54,0,0,0,.62,0v.92a2.49,2.49,0,0,1-.9.13c-.82,0-1.72-.3-1.72-2Z"/><path class="cls-2" d="M570.61,85.16h1.1V87.3A3.67,3.67,0,0,1,575.52,85c2.51,0,4.2,1.71,4.2,4.42v4.67c0,.9.2,1.25.86,1.25a4.09,4.09,0,0,0,.46,0v.92a1.66,1.66,0,0,1-.64.11c-.92,0-1.78-.48-1.78-2.16V89.63c0-2.22-1.34-3.61-3.34-3.61-2.18,0-3.57,1.72-3.57,4.27v6h-1.1Z"/><path class="cls-2" d="M583.26,82.19a.8.8,0,1,1,.79.77A.79.79,0,0,1,583.26,82.19Zm.24,3h1.1v9.09c0,.84.22,1.21.91,1.21a5.51,5.51,0,0,0,.61,0v.92a2.46,2.46,0,0,1-.9.13c-.82,0-1.72-.3-1.72-2Z"/><path class="cls-2" d="M588.45,93.39a3.12,3.12,0,0,0,3.13,2.07c1.82,0,2.64-.86,2.64-2,0-1.34-1-1.89-2.75-2.57s-3.13-1.45-3.13-3.26c0-1.65,1.32-2.79,3.24-2.79a3.25,3.25,0,0,1,3,1.82l-.9.47a2.31,2.31,0,0,0-2.14-1.26c-1.29,0-2.11.73-2.11,1.72,0,1.34,1.1,1.8,2.55,2.38,2.27.88,3.33,1.65,3.33,3.47s-1.3,3-3.7,3a4,4,0,0,1-4.11-2.75Z"/><path class="cls-2" d="M598.77,86.2h-1.3v-1h1.3V80.92h1.1v4.24H603v1h-3.08v7c0,1.72.59,2.36,1.94,2.36a5,5,0,0,0,1.14-.11v1a4.2,4.2,0,0,1-1.1.13c-1.61,0-3.08-.57-3.08-3.37Z"/><path class="cls-2" d="M604.75,90.73c0-3.45,2.36-5.85,5.42-5.85a5.25,5.25,0,0,1,5.15,5.54,5.12,5.12,0,0,1,0,.55h-9.46a4.31,4.31,0,0,0,4.38,4.51,4.67,4.67,0,0,0,3.63-1.6l.73.7a5.57,5.57,0,0,1-4.36,1.94,5.37,5.37,0,0,1-5.46-5.72Zm9.42-.75a4,4,0,0,0-4-4.07A4.23,4.23,0,0,0,605.88,90Z"/><path class="cls-2" d="M623.48,85v1.14a6.07,6.07,0,0,0-.71,0c-2.42,0-3.58,1.87-3.58,4.07v6.07h-1.1V85.16h1.1v2.23A3.57,3.57,0,0,1,623,85,4.78,4.78,0,0,1,623.48,85Z"/><path class="cls-2" d="M625.72,93.39a3.12,3.12,0,0,0,3.12,2.07c1.83,0,2.65-.86,2.65-2,0-1.34-1-1.89-2.76-2.57s-3.12-1.45-3.12-3.26c0-1.65,1.32-2.79,3.23-2.79a3.26,3.26,0,0,1,3,1.82l-.9.47a2.31,2.31,0,0,0-2.14-1.26c-1.3,0-2.11.73-2.11,1.72,0,1.34,1.1,1.8,2.55,2.38,2.27.88,3.32,1.65,3.32,3.47s-1.29,3-3.69,3a4.05,4.05,0,0,1-4.12-2.75Z"/><path class="cls-2" d="M636,86.2h-1.3v-1H636V80.92h1.1v4.24h3.08v1h-3.08v7c0,1.72.59,2.36,1.93,2.36a5,5,0,0,0,1.15-.11v1a4.2,4.2,0,0,1-1.1.13c-1.61,0-3.08-.57-3.08-3.37Z"/><path class="cls-2" d="M642,85.16h1.14l4,9.33,4-9.33h1.16l-4.77,11.09h-.77Z"/><path class="cls-2" d="M659.29,84.88a4.56,4.56,0,0,1,4.4,2.59V85.16h1.1v9c0,.92.24,1.34.93,1.34a2.32,2.32,0,0,0,.61-.07v.86a2.15,2.15,0,0,1-.92.15c-1.21,0-1.67-.92-1.67-2.13V94a4.68,4.68,0,0,1-4.45,2.57,5.84,5.84,0,0,1,0-11.66Zm0,10.63a4.81,4.81,0,1,0-4.49-4.8A4.52,4.52,0,0,0,659.29,95.51Z"/><path class="cls-2" d="M679.64,84.88a4.56,4.56,0,0,1,4.4,2.59V80.92h1.1V94.19c0,.92.24,1.34.93,1.34a2.32,2.32,0,0,0,.61-.07v.86a2.15,2.15,0,0,1-.92.15c-1.21,0-1.67-.92-1.67-2.13V94a4.68,4.68,0,0,1-4.45,2.57,5.84,5.84,0,0,1,0-11.66Zm0,10.63a4.81,4.81,0,1,0-4.49-4.8A4.52,4.52,0,0,0,679.64,95.51Z"/><path class="cls-2" d="M694,84.88a5.83,5.83,0,1,1-5.83,5.83A5.72,5.72,0,0,1,694,84.88Zm0,10.63a4.8,4.8,0,1,0-4.73-4.8A4.66,4.66,0,0,0,694,95.51Z"/><path class="cls-2" d="M702.59,85.16h1.1v2.31a4.52,4.52,0,0,1,4.4-2.59,5.84,5.84,0,0,1,0,11.66,4.52,4.52,0,0,1-4.4-2.6v6.56h-1.1Zm5.5,10.35a4.81,4.81,0,1,0-4.51-4.8A4.55,4.55,0,0,0,708.09,95.51Z"/><path class="cls-2" d="M721.88,85v1.14a5.88,5.88,0,0,0-.7,0c-2.42,0-3.59,1.87-3.59,4.07v6.07h-1.1V85.16h1.1v2.23a3.57,3.57,0,0,1,3.76-2.4A4.61,4.61,0,0,1,721.88,85Z"/><path class="cls-2" d="M728.63,84.88a4.55,4.55,0,0,1,4.4,2.59V85.16h1.11v9c0,.92.24,1.34.92,1.34a2.4,2.4,0,0,0,.62-.07v.86a2.22,2.22,0,0,1-.93.15c-1.21,0-1.67-.92-1.67-2.13V94a4.68,4.68,0,0,1-4.45,2.57,5.84,5.84,0,0,1,0-11.66Zm0,10.63a4.81,4.81,0,1,0-4.48-4.8A4.53,4.53,0,0,0,728.63,95.51Z"/><path class="cls-2" d="M736.4,85.16h1.14l4,9.33,4-9.33h1.17l-4.78,11.09h-.77Z"/><path class="cls-2" d="M752.55,96.32l-4.4-11.16h1.14l3.81,9.73L757,85.16h1.17l-5.24,13a5.39,5.39,0,0,1-1.12,1.89,2.54,2.54,0,0,1-1.85.71,2.69,2.69,0,0,1-1-.18v-1a2.79,2.79,0,0,0,1,.15,1.58,1.58,0,0,0,1.19-.48,3.87,3.87,0,0,0,.77-1.32Z"/><path class="cls-2" d="M238,111.56h1.15l4,9.33,4-9.33h1.16l-4.77,11.09h-.77Z"/><path class="cls-2" d="M261.54,111.41v1.14a5.93,5.93,0,0,0-.71,0c-2.42,0-3.58,1.87-3.58,4.07v6.07h-1.1V111.56h1.1v2.23a3.57,3.57,0,0,1,3.76-2.4A4.78,4.78,0,0,1,261.54,111.41Z"/><path class="cls-2" d="M268.29,111.28a4.56,4.56,0,0,1,4.4,2.6v-2.32h1.1v9c0,.92.24,1.34.93,1.34a2.32,2.32,0,0,0,.61-.07v.86a2.15,2.15,0,0,1-.92.15c-1.21,0-1.67-.92-1.67-2.13v-.37a4.68,4.68,0,0,1-4.45,2.57,5.84,5.84,0,0,1,0-11.66Zm0,10.63a4.81,4.81,0,1,0-4.49-4.8A4.52,4.52,0,0,0,268.29,121.91Zm.73-14.59h1.45l-1.87,3.19h-.9Z"/><path class="cls-2" d="M277.77,111.56h1.1v2.14a3.32,3.32,0,0,1,3.41-2.31,3.4,3.4,0,0,1,3.41,2.6,3.69,3.69,0,0,1,3.75-2.6c2.3,0,3.71,1.65,3.71,4.42v4.67c0,.9.2,1.25.86,1.25a3.73,3.73,0,0,0,.46,0v.92a1.64,1.64,0,0,1-.63.11c-.93,0-1.79-.48-1.79-2.16V116c0-2.22-1.05-3.61-2.84-3.61s-3.14,1.67-3.14,4.16v6.07H285V116c0-2.22-1.12-3.61-2.91-3.61-1.95,0-3.19,1.72-3.19,4.27v6h-1.1Z"/><path class="cls-2" d="M302,111.28a5.61,5.61,0,0,1,4.2,1.74l-.66.74a4.83,4.83,0,0,0-3.54-1.45,4.8,4.8,0,0,0,0,9.6,4.8,4.8,0,0,0,3.54-1.46l.66.75a5.65,5.65,0,0,1-4.2,1.74,5.83,5.83,0,0,1,0-11.66Z"/><path class="cls-2" d="M308.62,108.59a.79.79,0,1,1,.79.77A.79.79,0,0,1,308.62,108.59Zm.24,3H310v9.09c0,.84.22,1.21.9,1.21a5.7,5.7,0,0,0,.62,0v.92a2.54,2.54,0,0,1-.91.13c-.81,0-1.71-.3-1.71-2Z"/><path class="cls-2" d="M320.19,107.32H326a5,5,0,1,1,0,10h-3.1v5.36h-2.75Zm5.72,7.48a2.5,2.5,0,0,0,0-5h-3v5Z"/><path class="cls-2" d="M333.32,111.56h2.62v1.66a3.44,3.44,0,0,1,3.3-1.88,5.7,5.7,0,0,1,.79.07V114a5.67,5.67,0,0,0-1.1-.11,2.78,2.78,0,0,0-3,3v5.83h-2.62Z"/><path class="cls-2" d="M347.1,111.23a5.88,5.88,0,1,1-6.06,5.88A5.92,5.92,0,0,1,347.1,111.23Zm0,9.36a3.48,3.48,0,1,0-3.44-3.48A3.41,3.41,0,0,0,347.1,120.59Z"/><path class="cls-2" d="M366.59,111.56v9.25c0,2.33-.24,4.18-1.87,5.45a6.46,6.46,0,0,1-3.92,1.24,9,9,0,0,1-5.37-1.61l1.28-2a6.57,6.57,0,0,0,3.81,1.21,4.18,4.18,0,0,0,2.44-.66,3.29,3.29,0,0,0,1.05-2.82v-.55a4,4,0,0,1-3.61,1.63,5.51,5.51,0,0,1-5.54-5.67,5.57,5.57,0,0,1,5.54-5.75c1.88,0,3.17.82,3.55,1.85v-1.61Zm-5.83,8.85a3.35,3.35,0,1,0,0-6.69,3.35,3.35,0,0,0,0,6.69Z"/><path class="cls-2" d="M369.23,111.56h2.61v1.66a3.44,3.44,0,0,1,3.31-1.88,5.86,5.86,0,0,1,.79.07V114a5.75,5.75,0,0,0-1.1-.11,2.79,2.79,0,0,0-3,3v5.83h-2.61Z"/><path class="cls-2" d="M382.49,111.32c1.87,0,3.15.84,3.54,1.85v-1.61h2.65v7.75c0,.92.22,1.3.81,1.3a3.41,3.41,0,0,0,.55,0v2.14a3.94,3.94,0,0,1-1.3.17,3,3,0,0,1-1.54-.35,2.1,2.1,0,0,1-.9-1.34,4.28,4.28,0,0,1-3.81,1.74,5.81,5.81,0,0,1,0-11.6Zm.35,9.18a3.39,3.39,0,1,0,0-6.78,3.39,3.39,0,0,0,0,6.78Z"/><path class="cls-2" d="M392,111.56h2.62v1.59a3.42,3.42,0,0,1,6.1.13,3.64,3.64,0,0,1,3.56-1.94c2.42,0,3.79,1.72,3.79,4.45v3.5c0,.81.13,1.16.74,1.16a1.92,1.92,0,0,0,.38,0v2.22a3.87,3.87,0,0,1-1.15.13c-1.38,0-2.59-.59-2.59-2.9v-3.7c0-1.49-.71-2.46-1.94-2.46a2.29,2.29,0,0,0-2.13,2.57v6.38h-2.62v-6.49c0-1.49-.7-2.46-2-2.46a2.31,2.31,0,0,0-2.16,2.57v6.38H392Z"/><path class="cls-2" d="M411,111.56h2.64v6.5a2.17,2.17,0,0,0,2.24,2.46,2.41,2.41,0,0,0,2.43-2.57v-6.39h2.64v7.73c0,.92.22,1.27.81,1.27a5.09,5.09,0,0,0,.55,0v2.16a3.94,3.94,0,0,1-1.3.17,2.79,2.79,0,0,1-1.63-.44,2.11,2.11,0,0,1-.79-1.16,3.6,3.6,0,0,1-3.37,1.62c-2.66,0-4.22-1.71-4.22-4.44Z"/><path class="cls-2" d="M430.72,107.32h5.48c5.19,0,8.05,3.21,8.05,7.7s-2.84,7.63-8,7.63h-5.5Zm5.3,12.85c4,0,5.48-2.22,5.48-5.15s-1.45-5.22-5.5-5.22h-2.53v10.37Z"/><path class="cls-2" d="M454.48,107.05a8,8,0,1,1-8.1,8A8,8,0,0,1,454.48,107.05Zm0,13.43a5.47,5.47,0,1,0-5.39-5.46A5.34,5.34,0,0,0,454.48,120.48Z"/><path class="cls-2" d="M465.5,107.32h5.85a5,5,0,1,1,0,10h-3.1v5.36H465.5Zm5.72,7.48a2.5,2.5,0,0,0,0-5h-3v5Z"/><path class="cls-2" d="M479.16,107.32h6a4.87,4.87,0,0,1,5,4.86,4.61,4.61,0,0,1-2.79,4.36l3.72,6.11h-3.1l-3.28-5.45h-2.73v5.45h-2.75Zm5.68,7.41a2.41,2.41,0,0,0,2.53-2.51,2.3,2.3,0,0,0-2.31-2.42h-3.15v4.93Z"/><path class="cls-2" d="M498.19,107.32h2.33l6.41,15.33H504l-1.25-3.05H496l-1.26,3.05h-2.9Zm3.72,10-2.55-6.25-2.56,6.25Z"/><path class="cls-2" d="M505.49,107.32h2.91L513,118.61l4.58-11.29h2.91l-6.34,15.33h-2.29Z"/><path class="cls-2" d="M525.43,107.32h2.33l6.4,15.33h-2.9L530,119.6h-6.82l-1.25,3.05H519Zm3.72,10-2.56-6.25L524,117.33Z"/><path class="cls-2" d="M539.44,120.87l6.8-7.13a3,3,0,0,0,.94-2.09,2.23,2.23,0,0,0-2.26-2.2,2.35,2.35,0,0,0-2.33,2.42h-2.51a4.85,4.85,0,0,1,4.86-4.84,4.69,4.69,0,0,1,4.75,4.62,5.59,5.59,0,0,1-1.8,3.85l-4.45,4.67H550v2.48H539.44Z"/><path class="cls-2" d="M563,115c0,1.82,0,2.53-.07,3.25a5.51,5.51,0,0,1-10.91,0c-.07-.72-.07-1.43-.07-3.25s0-2.51.07-3.24a5.51,5.51,0,0,1,10.91,0C563,112.47,563,113.15,563,115Zm-2.69,0c0-1.65,0-2.34,0-2.91a2.81,2.81,0,0,0-5.59,0c0,.57,0,1.26,0,2.91s0,2.39.06,3a2.79,2.79,0,0,0,5.55,0C560.27,117.37,560.27,116.63,560.27,115Z"/><path class="cls-2" d="M564.5,120.87l6.8-7.13a3,3,0,0,0,.94-2.09,2.23,2.23,0,0,0-2.26-2.2,2.36,2.36,0,0,0-2.34,2.42h-2.5A4.84,4.84,0,0,1,570,107a4.69,4.69,0,0,1,4.75,4.62,5.59,5.59,0,0,1-1.8,3.85l-4.45,4.67h6.56v2.48H564.5Z"/><path class="cls-2" d="M588,115c0,1.82,0,2.53-.07,3.25a5.51,5.51,0,0,1-10.91,0c-.07-.72-.07-1.43-.07-3.25s0-2.51.07-3.24a5.51,5.51,0,0,1,10.91,0C588,112.47,588,113.15,588,115Zm-2.69,0c0-1.65,0-2.34,0-2.91a2.81,2.81,0,0,0-5.59,0c-.05.57-.05,1.26-.05,2.91a28.68,28.68,0,0,0,.07,3,2.79,2.79,0,0,0,5.55,0C585.33,117.37,585.33,116.63,585.33,115Z"/><path class="cls-2" d="M593.12,116.16h-2.93v-2.33h2.93v-3.17h2.55v3.17h3v2.33h-3v3.15h-2.55Z"/><path class="cls-2" d="M602.16,119.82a1.51,1.51,0,1,1,0,3,1.51,1.51,0,1,1,0-3Z"/><text class="cls-3" transform="translate(468.51 179.44)">ww<tspan class="cls-4" x="33.62" y="0">w</tspan><tspan class="cls-5" x="48.88" y="0">.</tspan><tspan class="cls-6" x="53.06" y="0">t</tspan><tspan class="cls-7" x="60.63" y="0">a</tspan><tspan x="74.82" y="0">c</tspan><tspan class="cls-8" x="86.77" y="0">r</tspan><tspan class="cls-5" x="93.63" y="0">.</tspan><tspan class="cls-9" x="97.81" y="0">c</tspan><tspan class="cls-10" x="109.89" y="0">z</tspan></text><text class="cls-3" transform="translate(639.99 179.44)">ww<tspan class="cls-4" x="33.62" y="0">w</tspan><tspan x="48.88" y="0">.</tspan><tspan class="cls-11" x="53.72" y="0">m</tspan><tspan class="cls-7" x="72.73" y="0">d</tspan><tspan x="86.92" y="0">c</tspan><tspan class="cls-12" x="98.87" y="0">r</tspan><tspan class="cls-13" x="105.73" y="0">.</tspan><tspan class="cls-9" x="109.91" y="0">c</tspan><tspan class="cls-10" x="121.99" y="0">z</tspan></text><polygon class="cls-2" points="87.93 59.83 78.75 59.83 78.75 54.45 102.87 54.45 102.87 59.83 93.85 59.83 93.85 81.25 87.93 81.25 87.93 59.83"/><path class="cls-2" d="M169.57,54.45h5.26l11.08,26.8H179.6l-1.81-4.5H166.61l-1.81,4.5h-6.31ZM176.1,72l-3.88-9.73L168.3,72Z"/><path class="cls-2" d="M163.8,134.8H175a9,9,0,0,1,6.45,2.56,8.36,8.36,0,0,1,2.67,6.29,8.45,8.45,0,0,1-1.31,4.63,7.62,7.62,0,0,1-3.46,3l6.53,10.34h-6.68l-5.58-8.92h-4v8.92H163.8Zm10.57,12.65a3.87,3.87,0,0,0,2.79-1,3.58,3.58,0,0,0,1.05-2.7,3.54,3.54,0,0,0-1-2.55,3.21,3.21,0,0,0-2.39-1h-5.19v7.26Z"/><path class="cls-2" d="M93.17,156.22a8.31,8.31,0,0,1-6.06-2.4,8.65,8.65,0,0,1,0-12.06,8.31,8.31,0,0,1,6-2.42,8.7,8.7,0,0,1,6.33,2.56l4.06-3.42a14.44,14.44,0,0,0-4.39-3.19,13.78,13.78,0,0,0-6-1.33,14.35,14.35,0,0,0-10.23,4,13.73,13.73,0,0,0,0,19.75,14.41,14.41,0,0,0,10.23,3.93,13.89,13.89,0,0,0,6-1.32,14.26,14.26,0,0,0,4.38-3.2l-4.06-3.41a8.67,8.67,0,0,1-6.34,2.55"/><polygon class="cls-2" points="93.02 128.52 90.58 126.02 84.92 126.02 84.92 126.03 90.34 131.65 95.68 131.65 101.15 126.03 101.15 126.02 95.41 126.02 93.02 128.52"/></g></g></svg>